# xmcd CD database file
#
# Track frame offsets:
#	150
#	18117
#	37415
#	56230
#	77397
#	100480
#	113697
#
# Disc length: 1922 seconds
#
# Revision: 0
# Processed by: cddbd v1.5.1PL0 Copyright (c) Steve Scherf et al.
# Submitted via: CDex 1.51
#
DISCID=53078007
DTITLE=Don Randi - Baked Potato Shuffle
DYEAR=1988
DGENRE=Jazz
TTITLE0=Pensivo
TTITLE1=Don't Stop Now
TTITLE2=Lady Shady
TTITLE3=Two Brothers
TTITLE4=Baked Patato Shuffle
TTITLE5=Carlito Lindo
TTITLE6=Malibu Nights
EXTD=YEAR: 1988
EXTT0=
EXTT1=
EXTT2=
EXTT3=
EXTT4=
EXTT5=
EXTT6=
PLAYORDER=
